<svg height="512pt" viewBox="0 0 512 512.00001" width="512pt" xmlns="http://www.w3.org/2000/svg"><path d="m390.925781 122.5c-2.34375 0-4.699219-.820312-6.597656-2.488281-4.148437-3.648438-4.554687-9.964844-.90625-14.113281.652344-.742188 16.269531-18.226563 38.125-18.339844 13.316406-.113282 25.617187 6.074218 36.558594 18.261718 3.6875 4.109376 3.347656 10.433594-.761719 14.121094-4.113281 3.691406-10.433594 3.351563-14.125-.761718-6.957031-7.75-14.203125-11.632813-21.566406-11.621094-12.765625.066406-23.109375 11.429687-23.210938 11.542968-1.976562 2.25-4.738281 3.398438-7.515625 3.398438zm0 0"/><path d="m332.394531 227.101562c-2.34375 0-4.695312-.820312-6.597656-2.488281-4.144531-3.648437-4.554687-9.964843-.90625-14.113281.652344-.746094 16.269531-18.226562 38.125-18.339844 13.339844-.082031 25.617187 6.074219 36.558594 18.261719 3.6875 4.109375 3.347656 10.433594-.761719 14.121094-4.109375 3.691406-10.433594 3.347656-14.125-.761719-6.921875-7.710938-14.140625-11.621094-21.460938-11.621094-.035156 0-.070312 0-.105468 0-12.765625.066406-23.109375 11.429688-23.207032 11.542969-1.980468 2.25-4.742187 3.398437-7.519531 3.398437zm0 0"/><path d="m273.332031 122.5c-2.34375 0-4.699219-.820312-6.597656-2.488281-4.148437-3.648438-4.554687-9.964844-.90625-14.113281.652344-.742188 16.269531-18.226563 38.125-18.339844 13.273437-.078125 25.617187 6.074218 36.558594 18.261718 3.6875 4.109376 3.347656 10.433594-.761719 14.121094-4.113281 3.691406-10.433594 3.351563-14.125-.761718-6.921875-7.710938-14.140625-11.621094-21.460938-11.621094-.035156 0-.070312 0-.105468 0-12.765625.066406-23.109375 11.429687-23.210938 11.542968-1.976562 2.25-4.738281 3.398438-7.515625 3.398438zm0 0"/><path d="m506.933594 1.308594c-3.121094-1.78125-6.960938-1.742188-10.050782.097656-30.289062 18.011719-63.207031 29.25-97.867187 33.390625-27.859375 3.339844-56.917969 2.140625-86.398437-3.558594-50.578126-9.78125-85.238282-29.679687-85.570313-29.878906-3.097656-1.800781-6.917969-1.8125-10.019531-.03125-3.109375 1.78125-5.019532 5.089844-5.019532 8.667969 0 75.960937 14.808594 147.550781 41.699219 201.699218-13.238281 8.527344-31.539062 18.878907-53.71875 27.828126-27.839843 11.230468-56.148437 18-84.117187 20.101562-34.851563 2.617188-69.351563-2.03125-102.519532-13.832031-3.378906-1.207031-7.148437-.5-9.871093 1.839843-2.71875 2.339844-3.980469 5.960938-3.300781 9.480469 2.871093 14.808594 4.230468 21.261719 8.230468 35.582031 1.480469 5.316407 6.992188 8.429688 12.3125 6.949219 5.320313-1.492187 8.429688-7 6.949219-12.320312-1.992187-7.152344-3.28125-12.152344-4.460937-17.378907 30.679687 8.777344 62.277343 12.019532 94.160156 9.617188 30.027344-2.25 60.347656-9.488281 90.105468-21.488281 22.890626-9.238281 41.8125-19.808594 55.800782-28.71875 5.351562-3.410157 9.980468-6.570313 13.828125-9.332031 1.972656 12.039062 3.5 24.019531 4.613281 35.851562 7.859375 83.007812-4.882812 158.957031-35.371094 202.136719-13.621094 19.289062-29.769531 30.449219-47.980468 33.1875-25.019532 3.761719-51.578126-6.027344-76.808594-28.339844-27.007813-23.867187-51.109375-60.859375-69.6875-106.96875-2.058594-5.128906-7.890625-7.597656-13.011719-5.539063-5.128906 2.0625-7.597656 7.890626-5.539063 13.011719 19.742188 48.976563 45.667969 88.566407 74.988282 114.488281 25.472656 22.507813 52.660156 34.148438 79.410156 34.148438 4.558594 0 9.109375-.339844 13.628906-1.019531 23.46875-3.53125 44.679688-17.859375 61.339844-41.429688 19.488281-27.609375 32.757812-67.300781 38.347656-114.789062 2.890625-24.527344 3.652344-50.527344 2.3125-77.207031 18.207032 14.6875 38.046875 22.386718 58.648438 22.386718 41.378906 0 79.71875-31.078125 107.9375-87.515625 27.121094-54.242187 42.058594-126.128906 42.058594-202.429687 0-3.597656-1.929688-6.917969-5.058594-8.6875zm-54.890625 202.167968c-24.660157 49.316407-56.636719 76.46875-90.046875 76.46875-21.441406 0-42.289063-11.179687-61-32.242187-1.667969-15.769531-4.050782-31.667969-7.128906-47.558594-.679688-3.507812-3.179688-6.390625-6.558594-7.558593-3.382813-1.160157-7.121094-.429688-9.820313 1.917968-.089843.070313-2.5625 2.210938-7.160156 5.660156-22.839844-47.207031-36.171875-108.246093-38.082031-173.785156 15.601562 7.207032 42.242187 17.777344 75.851562 24.347656 31.597656 6.191407 62.839844 7.53125 92.835938 3.992188 31.832031-3.761719 62.289062-13.042969 90.800781-27.632812-2.03125 66.800781-15.941406 128.910156-39.691406 176.390624zm0 0"/><path d="m28.886719 335.40625c-5.523438 0-10.003907-4.476562-10.003907-10 0-5.519531 4.46875-10 9.992188-10h.011719c5.523437 0 10 4.480469 10 10 0 5.523438-4.476563 10-10 10zm0 0"/><path d="m79.605469 355.371094c-1.757813 0-3.539063-.464844-5.152344-1.4375-4.730469-2.851563-6.253906-9-3.402344-13.730469 8.414063-13.953125 19.296875-22.277344 32.347657-24.742187 21.40625-4.039063 39.980468 9.984374 40.761718 10.582031 4.382813 3.363281 5.207032 9.644531 1.84375 14.023437-3.355468 4.371094-9.609375 5.199219-13.988281 1.871094-.3125-.234375-12.570313-9.21875-25.011719-6.804688-7.167968 1.394532-13.503906 6.574219-18.824218 15.398438-1.878907 3.113281-5.183594 4.839844-8.574219 4.839844zm0 0"/><path d="m194.691406 332.945312c-1.757812 0-3.539062-.464843-5.15625-1.4375-4.726562-2.851562-6.25-9-3.398437-13.730468 8.414062-13.953125 19.296875-22.277344 32.347656-24.742188 21.398437-4.042968 39.980469 9.984375 40.761719 10.585938 4.378906 3.363281 5.203125 9.640625 1.839844 14.019531-3.355469 4.371094-9.605469 5.203125-13.984376 1.871094-.316406-.234375-12.574218-9.222657-25.011718-6.804688-7.171875 1.394531-13.503906 6.574219-18.824219 15.398438-1.878906 3.117187-5.1875 4.839843-8.574219 4.839843zm0 0"/><path d="m182.015625 457.402344c-10.34375 0-20.75-3.890625-31.039063-11.621094-4.417968-3.316406-5.308593-9.585938-1.992187-14.003906 3.320313-4.414063 9.585937-5.304688 14.003906-1.988282 8.214844 6.175782 16.011719 8.597657 23.171875 7.210938 12.550782-2.441406 20.605469-15.589844 20.683594-15.722656 2.804688-4.757813 8.921875-6.320313 13.679688-3.519532 4.757812 2.800782 6.332031 8.953126 3.53125 13.710938-.5.847656-12.496094 20.851562-33.871094 25.121094-2.714844.542968-5.4375.8125-8.167969.8125zm0 0"/></svg>